<svg aria-hidden="true" style="position: absolute; width: 0; height: 0; overflow: hidden;" version="1.1" xmlns="http://www.w3.org/2000/svg" xmlns:xlink="http://www.w3.org/1999/xlink">

<symbol 
	 viewBox="0 0 512.005 512.005" id='arrow-up'>
<g>
	<g>
		<path d="M466.22,205.787L263.553,3.12c-4.16-4.16-10.923-4.16-15.083,0L45.804,205.787c-21.803,21.803-21.803,57.28,0,79.083
			s57.28,21.803,79.083,0l77.781-77.781v251.584c0,29.397,23.936,53.333,53.333,53.333s53.333-23.936,53.333-53.333V207.088
			l77.781,77.781c21.803,21.803,57.28,21.803,79.083,0C488.001,263.088,488.001,227.589,466.22,205.787z"/>
	</g>
</g>
<g>
</g>
<g>
</g>
<g>
</g>
<g>
</g>
<g>
</g>
<g>
</g>
<g>
</g>
<g>
</g>
<g>
</g>
<g>
</g>
<g>
</g>
<g>
</g>
<g>
</g>
<g>
</g>
<g>
</g>
</symbol>


<symbol
	 viewBox="0 0 447.243 447.243" id='arrow'>
<g>
	<g>
		<path d="M420.361,192.229c-1.83-0.297-3.682-0.434-5.535-0.41H99.305l6.88-3.2c6.725-3.183,12.843-7.515,18.08-12.8l88.48-88.48
			c11.653-11.124,13.611-29.019,4.64-42.4c-10.441-14.259-30.464-17.355-44.724-6.914c-1.152,0.844-2.247,1.764-3.276,2.754
			l-160,160C-3.119,213.269-3.13,233.53,9.36,246.034c0.008,0.008,0.017,0.017,0.025,0.025l160,160
			c12.514,12.479,32.775,12.451,45.255-0.063c0.982-0.985,1.899-2.033,2.745-3.137c8.971-13.381,7.013-31.276-4.64-42.4
			l-88.32-88.64c-4.695-4.7-10.093-8.641-16-11.68l-9.6-4.32h314.24c16.347,0.607,30.689-10.812,33.76-26.88
			C449.654,211.494,437.806,195.059,420.361,192.229z"/>
	</g>
</g>
<g>
</g>
<g>
</g>
<g>
</g>
<g>
</g>
<g>
</g>
<g>
</g>
<g>
</g>
<g>
</g>
<g>
</g>
<g>
</g>
<g>
</g>
<g>
</g>
<g>
</g>
<g>
</g>
<g>
</g>
</symbol>

<symbol 
	 viewBox="0 0 512 512" id='infinite'>
<g>
	<g>
		<path d="M396.8,141.333c-30.72,0-59.733,11.947-80.533,32.747L256,227.413l-0.107-0.107l-32.32,28.48l0.213,0.213l-57.493,50.987
			C152.64,320.533,134.507,328,115.2,328c-39.893,0-72.32-32.32-72.32-72s32.427-72,72.32-72c19.307,0,37.44,7.467,52.053,21.973
			l24.213,21.44l32.213-28.48l-26.987-23.893c-21.76-21.653-50.667-33.6-81.493-33.6C51.627,141.333,0,192.747,0,256
			s51.627,114.667,115.2,114.667c30.72,0,59.627-11.947,80.533-32.64L256,284.587l0.107,0.107l32.213-28.587L288.213,256
			l57.493-50.88C359.36,191.467,377.493,184,396.8,184c39.893,0,72.32,32.32,72.32,72s-32.427,72-72.32,72
			c-19.307,0-37.44-7.467-52.053-21.867l-24.213-21.44L288.32,313.28l26.987,23.893c21.76,21.653,50.667,33.493,81.387,33.493
			C460.373,370.667,512,319.253,512,256S460.373,141.333,396.8,141.333z"/>
	</g>
</g>
<g>
</g>
<g>
</g>
<g>
</g>
<g>
</g>
<g>
</g>
<g>
</g>
<g>
</g>
<g>
</g>
<g>
</g>
<g>
</g>
<g>
</g>
<g>
</g>
<g>
</g>
<g>
</g>
<g>
</g>
</symbol>

<symbol viewBox="0 0 973.1 973.1" id='question'
	>
<g>
	<path d="M502.29,788.199h-47c-33.1,0-60,26.9-60,60v64.9c0,33.1,26.9,60,60,60h47c33.101,0,60-26.9,60-60v-64.9
		C562.29,815,535.391,788.199,502.29,788.199z"/>
	<path d="M170.89,285.8l86.7,10.8c27.5,3.4,53.6-12.4,63.5-38.3c12.5-32.7,29.9-58.5,52.2-77.3c31.601-26.6,70.9-40,117.9-40
		c48.7,0,87.5,12.8,116.3,38.3c28.8,25.6,43.1,56.2,43.1,92.1c0,25.8-8.1,49.4-24.3,70.8c-10.5,13.6-42.8,42.2-96.7,85.9
		c-54,43.7-89.899,83.099-107.899,118.099c-18.4,35.801-24.8,75.5-26.4,115.301c-1.399,34.1,25.8,62.5,60,62.5h49
		c31.2,0,57-23.9,59.8-54.9c2-22.299,5.7-39.199,11.301-50.699c9.399-19.701,33.699-45.701,72.699-78.1
		C723.59,477.8,772.79,428.4,795.891,392c23-36.3,34.6-74.8,34.6-115.5c0-73.5-31.3-138-94-193.4c-62.6-55.4-147-83.1-253-83.1
		c-100.8,0-182.1,27.3-244.1,82c-52.8,46.6-84.9,101.8-96.2,165.5C139.69,266.1,152.39,283.5,170.89,285.8z"/>
</g>
<g>
</g>
<g>
</g>
<g>
</g>
<g>
</g>
<g>
</g>
<g>
</g>
<g>
</g>
<g>
</g>
<g>
</g>
<g>
</g>
<g>
</g>
<g>
</g>
<g>
</g>
<g>
</g>
<g>
</g>
</symbol>

<symbol
	 viewBox="0 0 512 512" id='lock'>
<path style="fill:#455A64;" d="M256,0c-82.436,0.094-149.239,66.898-149.333,149.333v96c0,5.891,4.776,10.667,10.667,10.667H160
	c5.891,0,10.667-4.776,10.667-10.667v-96C170.667,102.205,208.872,64,256,64s85.333,38.205,85.333,85.333v96
	c0,5.891,4.776,10.667,10.667,10.667h42.667c5.891,0,10.667-4.776,10.667-10.667v-96C405.239,66.898,338.436,0.094,256,0z"/>
<path style="fill:#FFC107;" d="M394.667,234.667H117.333c-17.673,0-32,14.327-32,32v192c0,29.455,23.878,53.333,53.333,53.333
	h234.667c29.455,0,53.333-23.878,53.333-53.333v-192C426.667,248.994,412.34,234.667,394.667,234.667z"/>
<path style="fill:#455A64;" d="M284.821,372.693c8.858-8.014,13.892-19.415,13.845-31.36c0-23.564-19.103-42.667-42.667-42.667
	s-42.667,19.103-42.667,42.667c-0.046,11.945,4.987,23.346,13.845,31.36l-13.312,39.936c-1.862,5.589,1.16,11.629,6.749,13.491
	c1.091,0.363,2.234,0.548,3.384,0.547h64c5.891,0.007,10.673-4.762,10.68-10.653c0.001-1.15-0.183-2.293-0.547-3.384
	L284.821,372.693z"/>
<g>
</g>
<g>
</g>
<g>
</g>
<g>
</g>
<g>
</g>
<g>
</g>
<g>
</g>
<g>
</g>
<g>
</g>
<g>
</g>
<g>
</g>
<g>
</g>
<g>
</g>
<g>
</g>
<g>
</g>
</symbol>

<symbol
	 viewBox="0 0 512 512" id='nav-expand'>
<g>
	<g>
		<path d="M501.333,96H10.667C4.779,96,0,100.779,0,106.667s4.779,10.667,10.667,10.667h490.667c5.888,0,10.667-4.779,10.667-10.667
			S507.221,96,501.333,96z"/>
	</g>
</g>
<g>
	<g>
		<path d="M501.333,245.333H10.667C4.779,245.333,0,250.112,0,256s4.779,10.667,10.667,10.667h490.667
			c5.888,0,10.667-4.779,10.667-10.667S507.221,245.333,501.333,245.333z"/>
	</g>
</g>
<g>
	<g>
		<path d="M501.333,394.667H10.667C4.779,394.667,0,399.445,0,405.333C0,411.221,4.779,416,10.667,416h490.667
			c5.888,0,10.667-4.779,10.667-10.667C512,399.445,507.221,394.667,501.333,394.667z"/>
	</g>
</g>
<g>
</g>
<g>
</g>
<g>
</g>
<g>
</g>
<g>
</g>
<g>
</g>
<g>
</g>
<g>
</g>
<g>
</g>
<g>
</g>
<g>
</g>
<g>
</g>
<g>
</g>
<g>
</g>
<g>
</g>
</symbol>

<symbol  viewBox="0 0 329.26933 329" id='close'><path d="m194.800781 164.769531 128.210938-128.214843c8.34375-8.339844 8.34375-21.824219 0-30.164063-8.339844-8.339844-21.824219-8.339844-30.164063 0l-128.214844 128.214844-128.210937-128.214844c-8.34375-8.339844-21.824219-8.339844-30.164063 0-8.34375 8.339844-8.34375 21.824219 0 30.164063l128.210938 128.214843-128.210938 128.214844c-8.34375 8.339844-8.34375 21.824219 0 30.164063 4.15625 4.160156 9.621094 6.25 15.082032 6.25 5.460937 0 10.921875-2.089844 15.082031-6.25l128.210937-128.214844 128.214844 128.214844c4.160156 4.160156 9.621094 6.25 15.082032 6.25 5.460937 0 10.921874-2.089844 15.082031-6.25 8.34375-8.339844 8.34375-21.824219 0-30.164063zm0 0"/></symbol>
<symbol id='search'
	 viewBox="0 0 512.005 512.005" >
<g>
	<g>
		<path d="M505.749,475.587l-145.6-145.6c28.203-34.837,45.184-79.104,45.184-127.317c0-111.744-90.923-202.667-202.667-202.667
			S0,90.925,0,202.669s90.923,202.667,202.667,202.667c48.213,0,92.48-16.981,127.317-45.184l145.6,145.6
			c4.16,4.16,9.621,6.251,15.083,6.251s10.923-2.091,15.083-6.251C514.091,497.411,514.091,483.928,505.749,475.587z
			 M202.667,362.669c-88.235,0-160-71.765-160-160s71.765-160,160-160s160,71.765,160,160S290.901,362.669,202.667,362.669z"/>
	</g>
</g>
<g>
</g>
<g>
</g>
<g>
</g>
<g>
</g>
<g>
</g>
<g>
</g>
<g>
</g>
<g>
</g>
<g>
</g>
<g>
</g>
<g>
</g>
<g>
</g>
<g>
</g>
<g>
</g>
<g>
</g>
</symbol>

<symbol id='nav' viewBox="0 -53 384 384" ><path d="m368 154.667969h-352c-8.832031 0-16-7.167969-16-16s7.167969-16 16-16h352c8.832031 0 16 7.167969 16 16s-7.167969 16-16 16zm0 0"/><path d="m368 32h-352c-8.832031 0-16-7.167969-16-16s7.167969-16 16-16h352c8.832031 0 16 7.167969 16 16s-7.167969 16-16 16zm0 0"/><path d="m368 277.332031h-352c-8.832031 0-16-7.167969-16-16s7.167969-16 16-16h352c8.832031 0 16 7.167969 16 16s-7.167969 16-16 16zm0 0"/></symbol>
<symbol id="cog" viewBox="0 0 512 512" ><path d="m272.066 512h-32.133c-25.989 0-47.134-21.144-47.134-47.133v-10.871c-11.049-3.53-21.784-7.986-32.097-13.323l-7.704 7.704c-18.659 18.682-48.548 18.134-66.665-.007l-22.711-22.71c-18.149-18.129-18.671-48.008.006-66.665l7.698-7.698c-5.337-10.313-9.792-21.046-13.323-32.097h-10.87c-25.988 0-47.133-21.144-47.133-47.133v-32.134c0-25.989 21.145-47.133 47.134-47.133h10.87c3.531-11.05 7.986-21.784 13.323-32.097l-7.704-7.703c-18.666-18.646-18.151-48.528.006-66.665l22.713-22.712c18.159-18.184 48.041-18.638 66.664.006l7.697 7.697c10.313-5.336 21.048-9.792 32.097-13.323v-10.87c0-25.989 21.144-47.133 47.134-47.133h32.133c25.989 0 47.133 21.144 47.133 47.133v10.871c11.049 3.53 21.784 7.986 32.097 13.323l7.704-7.704c18.659-18.682 48.548-18.134 66.665.007l22.711 22.71c18.149 18.129 18.671 48.008-.006 66.665l-7.698 7.698c5.337 10.313 9.792 21.046 13.323 32.097h10.87c25.989 0 47.134 21.144 47.134 47.133v32.134c0 25.989-21.145 47.133-47.134 47.133h-10.87c-3.531 11.05-7.986 21.784-13.323 32.097l7.704 7.704c18.666 18.646 18.151 48.528-.006 66.665l-22.713 22.712c-18.159 18.184-48.041 18.638-66.664-.006l-7.697-7.697c-10.313 5.336-21.048 9.792-32.097 13.323v10.871c0 25.987-21.144 47.131-47.134 47.131zm-106.349-102.83c14.327 8.473 29.747 14.874 45.831 19.025 6.624 1.709 11.252 7.683 11.252 14.524v22.148c0 9.447 7.687 17.133 17.134 17.133h32.133c9.447 0 17.134-7.686 17.134-17.133v-22.148c0-6.841 4.628-12.815 11.252-14.524 16.084-4.151 31.504-10.552 45.831-19.025 5.895-3.486 13.4-2.538 18.243 2.305l15.688 15.689c6.764 6.772 17.626 6.615 24.224.007l22.727-22.726c6.582-6.574 6.802-17.438.006-24.225l-15.695-15.695c-4.842-4.842-5.79-12.348-2.305-18.242 8.473-14.326 14.873-29.746 19.024-45.831 1.71-6.624 7.684-11.251 14.524-11.251h22.147c9.447 0 17.134-7.686 17.134-17.133v-32.134c0-9.447-7.687-17.133-17.134-17.133h-22.147c-6.841 0-12.814-4.628-14.524-11.251-4.151-16.085-10.552-31.505-19.024-45.831-3.485-5.894-2.537-13.4 2.305-18.242l15.689-15.689c6.782-6.774 6.605-17.634.006-24.225l-22.725-22.725c-6.587-6.596-17.451-6.789-24.225-.006l-15.694 15.695c-4.842 4.843-12.35 5.791-18.243 2.305-14.327-8.473-29.747-14.874-45.831-19.025-6.624-1.709-11.252-7.683-11.252-14.524v-22.15c0-9.447-7.687-17.133-17.134-17.133h-32.133c-9.447 0-17.134 7.686-17.134 17.133v22.148c0 6.841-4.628 12.815-11.252 14.524-16.084 4.151-31.504 10.552-45.831 19.025-5.896 3.485-13.401 2.537-18.243-2.305l-15.688-15.689c-6.764-6.772-17.627-6.615-24.224-.007l-22.727 22.726c-6.582 6.574-6.802 17.437-.006 24.225l15.695 15.695c4.842 4.842 5.79 12.348 2.305 18.242-8.473 14.326-14.873 29.746-19.024 45.831-1.71 6.624-7.684 11.251-14.524 11.251h-22.148c-9.447.001-17.134 7.687-17.134 17.134v32.134c0 9.447 7.687 17.133 17.134 17.133h22.147c6.841 0 12.814 4.628 14.524 11.251 4.151 16.085 10.552 31.505 19.024 45.831 3.485 5.894 2.537 13.4-2.305 18.242l-15.689 15.689c-6.782 6.774-6.605 17.634-.006 24.225l22.725 22.725c6.587 6.596 17.451 6.789 24.225.006l15.694-15.695c3.568-3.567 10.991-6.594 18.244-2.304z"/><path d="m256 367.4c-61.427 0-111.4-49.974-111.4-111.4s49.973-111.4 111.4-111.4 111.4 49.974 111.4 111.4-49.973 111.4-111.4 111.4zm0-192.8c-44.885 0-81.4 36.516-81.4 81.4s36.516 81.4 81.4 81.4 81.4-36.516 81.4-81.4-36.515-81.4-81.4-81.4z"/></symbol>
<symbol id='arrow'  viewBox="0 0 8621 6835">
    <g transform="matrix(1,0,0,1,0,-3281)">
        <g id="Artboard1" transform="matrix(1.02876,0,0,0.921279,-1248.69,614.818)">
            <rect x="1213.78" y="2894" width="8379.75" height="7418.61" style="fill:none;"/>
            <g transform="matrix(0.972044,0,0,1.08545,190.218,-946.313)">
                <clipPath id="_clip1">
                    <rect x="1213.78" y="3545.87" width="8379.75" height="6766.74"/>
                </clipPath>
                <g clip-path="url(#_clip1)">
                    <path d="M9593.53,6938.93C8297.69,8063.49 7001.84,9188.05 5705.99,10312.6L5706.14,10268.4L1124,10268.4C1124,10268.4 5011.54,6894.71 5011.54,6894.71L1196.92,3590.09L5756.95,3590.09L5756.95,3615.28L9593.53,6938.93ZM1196.92,3590.09L1145.73,3590.09L1124,10268.4C1124,8042.29 1116.76,5816.18 1124,3590.09C1124.02,3582.84 1142.52,3596.58 1145.73,3590.09C1152.27,3576.88 1145.83,3560.61 1145.88,3545.87L1196.92,3590.09Z" />
                </g>
            </g>
        </g>
    </g>
</symbol>
</svg>