<svg xmlns="http://www.w3.org/2000/svg" width="819.335" height="677.53" viewBox="0 0 819.335 677.53">
  <g id="noun_market_2469221" transform="translate(-114.79 -150.25)">
    <g id="Group_3" data-name="Group 3" transform="translate(129.79 165.25)">
      <g id="Group_4" data-name="Group 4">
        <path id="Path_2" data-name="Path 2" d="M129.978,165.25H918.951c0,44.6.175,89.665.175,134.034,0,104.4-157.859,104.4-157.859,0,0,104.4-157.873,104.4-157.873,0,0,104.4-157.859,104.4-157.859,0,0,104.4-157.886,104.4-157.886,0,0,104.4-157.859,104.4-157.859,0,0-44.369.188-89.437.188-134.034ZM161.52,423.275H887.409v389.5H603.394V649.395H445.535V812.78H161.52v-389.5Z" transform="translate(-129.79 -165.25)" fill="none" stroke="#000" stroke-width="30" fill-rule="evenodd"/>
      </g>
    </g>
    <g id="Group_5" data-name="Group 5" transform="translate(129.79 165.25)">
      <g id="Group_4-2" data-name="Group 4">
        <path id="Path_2-2" data-name="Path 2" d="M129.978,165.25H918.951c0,44.6.175,89.665.175,134.034,0,104.4-157.859,104.4-157.859,0,0,104.4-157.873,104.4-157.873,0,0,104.4-157.859,104.4-157.859,0,0,104.4-157.886,104.4-157.886,0,0,104.4-157.859,104.4-157.859,0,0-44.369.188-89.437.188-134.034ZM161.52,423.275H887.409v389.5H603.394V649.395H445.535V812.78H161.52v-389.5Z" transform="translate(-129.79 -165.25)" fill="none" stroke="#000" stroke-width="30" fill-rule="evenodd"/>
      </g>
    </g>
    <g id="Group_6" data-name="Group 6" transform="translate(129.79 165.25)">
      <g id="Group_4-3" data-name="Group 4">
        <path id="Path_2-3" data-name="Path 2" d="M129.978,165.25H918.951c0,44.6.175,89.665.175,134.034,0,104.4-157.859,104.4-157.859,0,0,104.4-157.873,104.4-157.873,0,0,104.4-157.859,104.4-157.859,0,0,104.4-157.886,104.4-157.886,0,0,104.4-157.859,104.4-157.859,0,0-44.369.188-89.437.188-134.034ZM161.52,423.275H887.409v389.5H603.394V649.395H445.535V812.78H161.52v-389.5Z" transform="translate(-129.79 -165.25)" fill="none" stroke="#000" stroke-width="30" fill-rule="evenodd"/>
      </g>
    </g>
  </g>
</svg>
