<svg xmlns="http://www.w3.org/2000/svg" width="594.061" height="601" viewBox="0 0 594.061 601">
  <g id="Group_5" data-name="Group 5" transform="translate(682.061 -346)">
    <g id="Ellipse_4" data-name="Ellipse 4" transform="translate(-548 346)" fill="none" stroke="#677" stroke-width="30">
      <circle cx="163" cy="163" r="163" stroke="none"/>
      <circle cx="163" cy="163" r="148" fill="none"/>
    </g>
    <g id="Subtraction_1" data-name="Subtraction 1" transform="translate(-682.061 656.096)" fill="none">
      <path d="M593.666,272.183H0C.807,262.753,2.077,253.27,3.773,244c1.675-9.16,3.807-18.341,6.338-27.29,2.5-8.85,5.455-17.687,8.775-26.267,3.289-8.5,7.019-16.949,11.085-25.116,4.035-8.1,8.5-16.125,13.268-23.839,4.742-7.67,9.9-15.218,15.323-22.434,5.407-7.191,11.211-14.223,17.251-20.9S88.254,85.008,94.863,78.91s13.589-11.977,20.725-17.455c7.159-5.5,14.653-10.724,22.272-15.54,7.66-4.842,15.631-9.384,23.691-13.5,8.119-4.145,16.524-7.957,24.982-11.33,8.536-3.4,17.333-6.444,26.147-9.034,8.91-2.619,18.056-4.843,27.184-6.61,9.242-1.79,18.694-3.156,28.093-4.06C277.487.465,287.2,0,296.833,0s19.345.465,28.876,1.382c9.4.9,18.851,2.27,28.093,4.06,9.127,1.767,18.273,3.991,27.184,6.61,8.813,2.59,17.61,5.63,26.147,9.034,8.458,3.373,16.863,7.185,24.982,11.33,8.059,4.115,16.03,8.656,23.691,13.5,7.619,4.816,15.112,10.045,22.272,15.54,7.136,5.478,14.109,11.35,20.725,17.455s13.02,12.572,19.052,19.242,11.844,13.71,17.251,20.9c5.426,7.216,10.581,14.764,15.323,22.434,4.768,7.712,9.232,15.733,13.268,23.839,4.066,8.167,7.8,16.617,11.085,25.116,3.32,8.579,6.272,17.417,8.775,26.267,2.53,8.948,4.662,18.129,6.337,27.29,1.7,9.276,2.966,18.759,3.773,28.185Z" stroke="none"/>
      <path d="M 558.9592895507812 242.1826629638672 C 557.7269287109375 236.3607788085938 556.2965698242188 230.5627899169922 554.6871948242188 224.8706665039062 C 552.4385375976562 216.918212890625 549.7857666015625 208.9773254394531 546.8028564453125 201.2694396972656 C 543.846435546875 193.6306610107422 540.4945068359375 186.035888671875 536.840087890625 178.6959991455078 C 533.2115478515625 171.4079895019531 529.1979370117188 164.1966552734375 524.910400390625 157.2617645263672 C 520.645751953125 150.3633270263672 516.0084228515625 143.5739898681641 511.1275329589844 137.0826568603516 C 506.2617492675781 130.6115417480469 501.0390625 124.2838821411133 495.6048583984375 118.2754364013672 C 490.1761779785156 112.273323059082 484.4075317382812 106.4472122192383 478.4595336914062 100.9591064453125 C 472.5051879882812 95.46566009521484 466.2305297851562 90.18110656738281 459.8101806640625 85.25276947021484 C 453.3690795898438 80.30854797363281 446.62841796875 75.6051025390625 439.7752990722656 71.27288055419922 C 432.8868408203125 66.91843414306641 425.7198486328125 62.83454895019531 418.4731750488281 59.13476943969727 C 411.175537109375 55.40899276733398 403.6211853027344 51.98276901245117 396.0198669433594 48.95143890380859 C 388.3495178222656 45.89254760742188 380.4453125 43.16154861450195 372.5260925292969 40.83410263061523 C 364.5191955566406 38.48077011108398 356.3007507324219 36.48221588134766 348.0982971191406 34.89399337768555 C 339.7890625 33.28488159179688 331.2898559570312 32.05677032470703 322.8365173339844 31.24377059936523 C 314.2560729980469 30.41843795776367 305.507080078125 29.99999237060547 296.8328552246094 29.99999237060547 C 288.1584167480469 29.99999237060547 279.409423828125 30.41843795776367 270.828857421875 31.24377059936523 C 262.3756408691406 32.05677032470703 253.8764038085938 33.28488159179688 245.5667419433594 34.89410400390625 C 237.3648529052734 36.48232650756836 229.1461944580078 38.48088073730469 221.1387481689453 40.83432769775391 C 213.2214050292969 43.16121673583984 205.3170776367188 45.89221572875977 197.6457366943359 48.95143890380859 C 190.0445251464844 51.98276901245117 182.4900817871094 55.40888214111328 175.1923065185547 59.13476943969727 C 167.9459686279297 62.83443832397461 160.7789611816406 66.918212890625 153.8904113769531 71.27288055419922 C 147.0372924804688 75.6051025390625 140.296630859375 80.30854797363281 133.8557434082031 85.25254821777344 C 127.4349670410156 90.18110656738281 121.1605224609375 95.46554565429688 115.206413269043 100.9589920043945 C 109.2584075927734 106.4468841552734 103.4898529052734 112.2728805541992 98.06096649169922 118.2752151489258 C 92.62663269042969 124.2838821411133 87.40396881103516 130.6115417480469 82.53818511962891 137.0825500488281 C 77.65752410888672 143.5735473632812 73.02008056640625 150.3628845214844 68.75496673583984 157.2618865966797 C 64.46730041503906 164.1973266601562 60.45374298095703 171.4087677001953 56.82563400268555 178.6958770751953 C 53.17074584960938 186.0369873046875 49.81885528564453 193.6316528320312 46.86307907104492 201.2689971923828 C 43.87985610961914 208.9774322509766 41.22707748413086 216.9181060791016 38.97863388061523 224.8703308105469 C 37.36907577514648 230.5629272460938 35.93869018554688 236.3606872558594 34.70627212524414 242.1826629638672 L 558.9592895507812 242.1826629638672 M 593.665771484375 272.1833190917969 L 593.6656494140625 272.1826477050781 L 593.665771484375 272.1833190917969 Z M 593.6656494140625 272.1826477050781 L -3.366428063600324e-05 272.1826477050781 C 0.8075218796730042 262.7526550292969 2.077077388763428 253.2699890136719 3.772966384887695 243.9974365234375 C 5.44807767868042 234.8376617431641 7.580299854278564 225.6562194824219 10.11041069030762 216.7078857421875 C 12.61274433135986 207.8578796386719 15.56496620178223 199.0205535888672 18.88518905639648 190.4413299560547 C 22.17440986633301 181.9423217773438 25.90396690368652 173.4919891357422 29.96996688842773 165.3252105712891 C 34.00529861450195 157.22021484375 38.46907806396484 149.1997680664062 43.23752212524414 141.4865417480469 C 47.97918701171875 133.8167724609375 53.134521484375 126.2689895629883 58.56040954589844 119.0529937744141 C 63.96763229370117 111.8618850708008 69.77174377441406 104.8295516967773 75.81140899658203 98.15177154541016 C 81.84385681152344 91.48199462890625 88.25385284423828 85.00810241699219 94.86329650878906 78.90999603271484 C 101.4796295166016 72.80554962158203 108.45263671875 66.93288421630859 115.5886306762695 61.45521545410156 C 122.7480773925781 55.95965957641602 130.2413024902344 50.73110580444336 137.8603057861328 45.91477203369141 C 145.5202941894531 41.07243728637695 153.490966796875 36.53065872192383 161.5509643554688 32.4156608581543 C 169.6700744628906 28.27043724060059 178.0753021240234 24.45843696594238 186.5330810546875 21.08554840087891 C 195.0696258544922 17.68132591247559 203.8666381835938 14.641770362854 212.6797485351562 12.05165958404541 C 221.5901947021484 9.432770729064941 230.736083984375 7.208659648895264 239.8634033203125 5.441215038299561 C 249.1055145263672 3.651437282562256 258.5575256347656 2.285548448562622 267.9567565917969 1.381548404693604 C 277.4873046875 0.4648817777633667 287.2024230957031 -7.120768259483157e-06 296.8328552246094 -7.120768259483157e-06 C 306.4629516601562 -7.120768259483157e-06 316.1781921386719 0.4648817777633667 325.708740234375 1.381548404693604 C 335.1081848144531 2.285548448562622 344.5600891113281 3.651437282562256 353.8020629882812 5.441215038299561 C 362.9294128417969 7.208548545837402 372.0752868652344 9.432659149169922 380.9858703613281 12.05165958404541 C 389.7991943359375 14.64188194274902 398.59619140625 17.68132591247559 407.1325073242188 21.08554840087891 C 415.5908508300781 24.45866012573242 423.9959716796875 28.27066040039062 432.1146240234375 32.4156608581543 C 440.174072265625 36.53043746948242 448.1447448730469 41.07210540771484 455.805419921875 45.91477203369141 C 463.4244079589844 50.73110580444336 470.9176330566406 55.95965957641602 478.0770874023438 61.45521545410156 C 485.2129516601562 66.93288421630859 492.1859741210938 72.80554962158203 498.8023986816406 78.90999603271484 C 505.4122009277344 85.008544921875 511.8221740722656 91.48243713378906 517.8543090820312 98.15177154541016 C 523.8939819335938 104.8295516967773 529.6980590820312 111.8618850708008 535.1052856445312 119.0529937744141 C 540.5314331054688 126.2694396972656 545.6866455078125 133.8171081542969 550.427978515625 141.4865417480469 C 555.1959838867188 149.1986541748047 559.6598510742188 157.2192077636719 563.6956176757812 165.3252105712891 C 567.76171875 173.4919891357422 571.4912109375 181.9423217773438 574.780517578125 190.4413299560547 C 578.1006469726562 199.0205535888672 581.0528564453125 207.8578796386719 583.5552978515625 216.7078857421875 C 586.085205078125 225.6556549072266 588.2174072265625 234.8370971679688 589.8926391601562 243.9974365234375 C 591.5889892578125 253.2733306884766 592.8585205078125 262.7562255859375 593.6656494140625 272.1826477050781 Z" stroke="none" fill="#677"/>
    </g>
    <rect id="Rectangle_5" data-name="Rectangle 5" width="594" height="53" transform="translate(-682 894)" fill="#fff"/>
  </g>
</svg>
